HIERARCHY
ROOT joint_0
{
	OFFSET 0.000000 0.000000 0.000000
	CHANNELS 6 Xposition Yposition Zposition Zrotation Yrotation Xrotation 
	JOINT joint_1
	{
		OFFSET -0.613770 -1.125488 108.300049
		CHANNELS 3 Zrotation Yrotation Xrotation
		JOINT joint_2
		{
			OFFSET -10.925537 -0.900513 98.259033
			CHANNELS 3 Zrotation Yrotation Xrotation
			JOINT joint_3
			{
				OFFSET -11.287842 0.313599 98.110962
				CHANNELS 3 Zrotation Yrotation Xrotation
				JOINT joint_4
				{
					OFFSET -2.124268 2.484680 136.491943
					CHANNELS 3 Zrotation Yrotation Xrotation
					JOINT joint_5
					{
						OFFSET 16.640869 1.801270 81.862061
						CHANNELS 3 Zrotation Yrotation Xrotation
						End Site
						{
							OFFSET 0.000000 0.000000 0.000000
						}
					}
				}
				JOINT joint_6
				{
					OFFSET 0.447998 -28.248108 77.258057
					CHANNELS 3 Zrotation Yrotation Xrotation
					JOINT joint_7
					{
						OFFSET 7.918701 -130.256348 -24.086060
						CHANNELS 3 Zrotation Yrotation Xrotation
						JOINT joint_8
						{
							OFFSET 62.431885 -29.384277 -258.572021
							CHANNELS 3 Zrotation Yrotation Xrotation
							JOINT joint_9
							{
								OFFSET 53.743164 -21.907532 -238.024963
								CHANNELS 3 Zrotation Yrotation Xrotation
								End Site
								{
									OFFSET 0.000000 0.000000 0.000000
								}
							}
						}
					}
				}
				JOINT joint_10
				{
					OFFSET -2.846924 31.052063 76.130981
					CHANNELS 3 Zrotation Yrotation Xrotation
					JOINT joint_11
					{
						OFFSET 9.073730 131.055603 -18.752930
						CHANNELS 3 Zrotation Yrotation Xrotation
						JOINT joint_12
						{
							OFFSET 52.981201 29.883301 -260.613037
							CHANNELS 3 Zrotation Yrotation Xrotation
							JOINT joint_13
							{
								OFFSET 62.237793 15.935547 -236.423035
								CHANNELS 3 Zrotation Yrotation Xrotation
								End Site
								{
									OFFSET 0.000000 0.000000 0.000000
								}
							}
						}
					}
				}
			}
		}
	}
	JOINT joint_14
	{
		OFFSET 22.046143 -72.816772 -98.122925
		CHANNELS 3 Zrotation Yrotation Xrotation
		JOINT joint_15
		{
			OFFSET -23.673828 -54.692932 -469.927032
			CHANNELS 3 Zrotation Yrotation Xrotation
			JOINT joint_16
			{
				OFFSET -34.875244 -46.505249 -395.890999
				CHANNELS 3 Zrotation Yrotation Xrotation
				JOINT joint_17
				{
					OFFSET 168.486328 14.224182 -74.182999
					CHANNELS 3 Zrotation Yrotation Xrotation
					End Site
					{
						OFFSET 0.000000 0.000000 0.000000
					}
				}
			}
		}
	}
	JOINT joint_18
	{
		OFFSET -1.731934 82.408569 -92.846924
		CHANNELS 3 Zrotation Yrotation Xrotation
		JOINT joint_19
		{
			OFFSET -6.908936 32.203369 -472.535034
			CHANNELS 3 Zrotation Yrotation Xrotation
			JOINT joint_20
			{
				OFFSET -13.963135 23.196533 -399.207993
				CHANNELS 3 Zrotation Yrotation Xrotation
				JOINT joint_21
				{
					OFFSET 168.417725 19.834229 -73.041004
					CHANNELS 3 Zrotation Yrotation Xrotation
					End Site
					{
						OFFSET 0.000000 0.000000 0.000000
					}
				}
			}
		}
	}
}
MOTION
Frames: 9
Frame Time: 0.016667
-2474.291260 982.927917 1060.241943 -0.457505 4.633955 -2.028010 1.889446 -1.864429 2.594547 1.589711 0.172679 -0.544715 1.685197 -0.342492 0.234656 -0.027426 1.968811 -0.122453 0.000000 0.000000 0.000000 0.591485 1.045199 -1.830908 0.272358 1.342471 2.138968 0.566089 -2.349014 1.586556 0.000000 0.000000 0.000000 2.729377 0.335958 -1.440894 -0.246745 -0.143253 -0.678523 -0.432184 -0.182010 -1.570500 0.000000 0.000000 0.000000 0.862284 -5.755768 6.391268 0.555053 0.058223 0.278875 0.406540 1.507381 0.049595 0.000000 0.000000 0.000000 1.162501 -5.070737 0.885357 1.701587 1.969595 -1.081746 1.422308 -1.768679 0.823448 0.000000 0.000000 0.000000 
-2474.596680 982.862305 1060.187012 -0.430868 4.744354 -1.979519 1.875307 -1.980334 2.547906 1.582445 0.144259 -0.542985 1.677658 -0.332995 0.236181 -0.031202 2.037161 -0.114452 0.000000 0.000000 0.000000 0.519685 1.087097 -1.837466 0.271866 1.372770 2.158826 0.571247 -2.416641 1.583139 0.000000 0.000000 0.000000 2.773453 0.351603 -1.449314 -0.248308 -0.134332 -0.684914 -0.436685 -0.181653 -1.587166 0.000000 0.000000 0.000000 0.873588 -5.892146 6.335991 0.549107 0.052606 0.287967 0.398034 1.534980 0.043529 0.000000 0.000000 0.000000 1.145910 -5.226469 0.844051 1.698295 1.998500 -1.100253 1.417541 -1.758484 0.820166 0.000000 0.000000 0.000000 
-2474.852051 982.890564 1060.142944 -0.445162 4.661339 -1.931605 1.879595 -1.911803 2.501065 1.590088 0.124479 -0.543780 1.684975 -0.304898 0.234726 -0.033703 2.059882 -0.105670 0.000000 0.000000 0.000000 0.506636 1.063509 -1.863408 0.276249 1.347394 2.156003 0.570169 -2.326639 1.613444 0.000000 0.000000 0.000000 2.772556 0.352007 -1.470569 -0.246707 -0.135769 -0.673563 -0.438490 -0.179214 -1.594513 0.000000 0.000000 0.000000 0.884024 -5.827456 6.269796 0.558935 0.073643 0.313866 0.411973 1.536676 0.049468 0.000000 0.000000 0.000000 1.156566 -5.158662 0.798395 1.704737 2.021391 -1.117277 1.421391 -1.769865 0.823199 0.000000 0.000000 0.000000 
-2475.138184 983.097168 1060.136963 -0.537432 4.147628 -1.884499 1.916855 -1.420458 2.460863 1.621393 0.128231 -0.556108 1.717374 -0.237134 0.233626 -0.031453 1.965279 -0.102308 0.000000 0.000000 0.000000 0.606052 0.870764 -1.910123 0.278347 1.168302 2.033883 0.565159 -1.803334 1.799208 0.000000 0.000000 0.000000 2.668621 0.312844 -1.520174 -0.238545 -0.165538 -0.622917 -0.434220 -0.173474 -1.580565 0.000000 0.000000 0.000000 0.887165 -5.313150 6.183429 0.601889 0.132346 0.374511 0.468974 1.502234 0.077297 0.000000 0.000000 0.000000 1.222621 -4.600479 0.743293 1.727853 2.024209 -1.126358 1.440806 -1.816285 0.837191 0.000000 0.000000 0.000000 
-2475.373047 983.397766 1060.141968 -0.671667 3.436160 -1.835310 1.972605 -0.735313 2.418979 1.667978 0.138181 -0.570939 1.765031 -0.154659 0.230295 -0.027616 1.823826 -0.099746 0.000000 0.000000 0.000000 0.763474 0.613463 -1.977453 0.282561 0.934855 1.887400 0.553296 -1.124278 2.023084 0.000000 0.000000 0.000000 2.521000 0.258804 -1.577418 -0.228383 -0.204958 -0.560436 -0.427220 -0.165176 -1.557274 0.000000 0.000000 0.000000 0.888981 -4.592999 6.083315 0.660927 0.216627 0.451873 0.548065 1.446904 0.116561 0.000000 0.000000 0.000000 1.315639 -3.813157 0.682905 1.760391 2.019356 -1.133602 1.468989 -1.877992 0.856800 0.000000 0.000000 0.000000 
-2475.267822 983.626587 1060.097046 -0.790330 3.027114 -1.795325 2.026862 -0.380424 2.369342 1.721834 0.134087 -0.566722 1.816374 -0.102886 0.215461 -0.027531 1.789487 -0.094332 0.000000 0.000000 0.000000 0.888031 0.533575 -2.082713 0.316163 0.883760 1.978577 0.521975 -0.954222 1.950744 0.000000 0.000000 0.000000 2.449266 0.244552 -1.612641 -0.223421 -0.212324 -0.534612 -0.423857 -0.156856 -1.547092 0.000000 0.000000 0.000000 0.908381 -4.193787 6.001912 0.703139 0.321251 0.505823 0.612661 1.378196 0.150615 0.000000 0.000000 0.000000 1.382518 -3.350343 0.639582 1.793433 2.037661 -1.153731 1.496167 -1.937035 0.875583 0.000000 0.000000 0.000000 
-2474.528076 983.632996 1059.993042 -0.883867 3.261388 -1.768264 2.070297 -0.747255 2.299059 1.783716 0.109214 -0.519085 1.868598 -0.113147 0.182723 -0.033018 1.979023 -0.093669 0.000000 0.000000 0.000000 0.890802 0.829771 -2.236640 0.403232 1.206810 2.532069 0.465588 -1.832347 1.333980 0.000000 0.000000 0.000000 2.520654 0.323164 -1.611091 -0.224640 -0.142019 -0.564984 -0.430848 -0.149320 -1.574482 0.000000 0.000000 0.000000 0.963313 -4.345035 5.943487 0.753357 0.175720 0.534030 0.641380 1.430690 0.158696 0.000000 0.000000 0.000000 1.401744 -3.527963 0.625273 1.822822 1.987400 -1.205205 1.526624 -1.927644 0.887649 0.000000 0.000000 0.000000 
-2473.449219 983.567444 1059.839966 -0.960868 3.798068 -1.752124 2.112542 -1.443441 2.218746 1.853477 0.068535 -0.451942 1.925320 -0.152507 0.140726 -0.042002 2.275204 -0.091740 0.000000 0.000000 0.000000 0.861887 1.299998 -2.405842 0.507775 1.709116 3.309013 0.382132 -3.218320 0.421574 0.000000 0.000000 0.000000 2.667175 0.441225 -1.588817 -0.230725 -0.040118 -0.629512 -0.441564 -0.141280 -1.615386 0.000000 0.000000 0.000000 1.035912 -4.816979 5.903625 0.786271 0.050691 0.540064 0.655442 1.468303 0.161606 0.000000 0.000000 0.000000 1.395305 -4.030519 0.627374 1.852858 1.961302 -1.269215 1.555955 -1.919506 0.899307 0.000000 0.000000 0.000000 
-2472.626953 983.713135 1059.602051 -0.994942 4.126911 -1.752706 2.167457 -1.848998 2.161369 1.925251 0.028572 -0.420609 1.989190 -0.171084 0.105892 -0.054016 2.498462 -0.065377 0.000000 0.000000 0.000000 0.961212 1.587913 -2.569863 0.593129 2.045370 3.909741 0.272701 -4.150059 -0.404325 0.000000 0.000000 0.000000 2.789101 0.493468 -1.585827 -0.241054 -0.002695 -0.691104 -0.443616 -0.128320 -1.625429 0.000000 0.000000 0.000000 1.092802 -5.462953 5.907749 0.693009 0.758411 0.493667 0.683702 1.078237 0.206946 0.000000 0.000000 0.000000 1.375424 -4.480004 0.632482 1.887871 2.272901 -1.304829 1.560664 -2.113494 0.924003 0.000000 0.000000 0.000000 
